<svg width="1280" height="900" viewBox="0 0 1280 900" fill="none" xmlns="http://www.w3.org/2000/svg">
  <rect width="1280" height="900" rx="44" fill="url(#bg)"/>
  <rect x="30" y="30" width="1220" height="72" rx="24" fill="#081A2B" fill-opacity="0.92"/>
  <circle cx="86" cy="66" r="8" fill="#56C8E0"/>
  <circle cx="114" cy="66" r="8" fill="#16384E"/>
  <circle cx="142" cy="66" r="8" fill="#16384E"/>
  <text x="178" y="74" fill="#D6EEF8" font-size="26" font-family="Segoe UI, Arial" font-weight="700">Avatar Create Studio</text>

  <rect x="52" y="138" width="420" height="314" rx="34" fill="#F7FBFE" fill-opacity="0.96"/>
  <text x="88" y="194" fill="#6C8AA0" font-size="22" font-family="Segoe UI, Arial" font-weight="700">Prompt</text>
  <text x="88" y="240" fill="#163E59" font-size="34" font-family="Segoe UI, Arial" font-weight="700">品牌讲解员，科技展会风格，</text>
  <text x="88" y="286" fill="#163E59" font-size="34" font-family="Segoe UI, Arial" font-weight="700">支持中文介绍与实时问答</text>
  <rect x="88" y="330" width="150" height="38" rx="19" fill="#E6F6FB"/>
  <rect x="250" y="330" width="150" height="38" rx="19" fill="#E6F6FB"/>
  <rect x="88" y="390" width="320" height="12" rx="6" fill="#D9EAF3"/>
  <rect x="88" y="416" width="266" height="12" rx="6" fill="#E6F1F7"/>

  <rect x="504" y="138" width="724" height="520" rx="34" fill="#081A2B" fill-opacity="0.94"/>
  <rect x="548" y="182" width="340" height="430" rx="28" fill="#0E2A42"/>
  <ellipse cx="718" cy="296" rx="110" ry="118" fill="url(#avatarGlow)"/>
  <circle cx="718" cy="286" r="62" fill="url(#avatarHead)"/>
  <rect x="652" y="354" width="132" height="166" rx="62" fill="url(#avatarBody)"/>
  <rect x="584" y="394" width="272" height="26" rx="13" fill="#CFF4FF" fill-opacity="0.72"/>
  <rect x="584" y="436" width="96" height="152" rx="42" fill="#D6F7FF" fill-opacity="0.68"/>
  <rect x="756" y="436" width="96" height="152" rx="42" fill="#D6F7FF" fill-opacity="0.68"/>

  <rect x="920" y="182" width="264" height="146" rx="26" fill="#102D46"/>
  <text x="956" y="228" fill="#8EB2C8" font-size="18" font-family="Segoe UI, Arial" font-weight="700">Reference Images</text>
  <rect x="956" y="252" width="84" height="48" rx="18" fill="#E9F8FD" fill-opacity="0.9"/>
  <rect x="1052" y="252" width="84" height="48" rx="18" fill="#E9F8FD" fill-opacity="0.4"/>
  <rect x="956" y="316" width="180" height="12" rx="6" fill="#274C68"/>

  <rect x="920" y="350" width="264" height="122" rx="26" fill="#102D46"/>
  <text x="956" y="396" fill="#8EB2C8" font-size="18" font-family="Segoe UI, Arial" font-weight="700">Assets</text>
  <text x="956" y="438" fill="#EDF8FD" font-size="32" font-family="Segoe UI, Arial" font-weight="700">12 Drafts</text>

  <rect x="920" y="494" width="264" height="118" rx="26" fill="#102D46"/>
  <text x="956" y="540" fill="#8EB2C8" font-size="18" font-family="Segoe UI, Arial" font-weight="700">Status</text>
  <text x="956" y="582" fill="#EDF8FD" font-size="30" font-family="Segoe UI, Arial" font-weight="700">Ready for rigging</text>

  <rect x="52" y="488" width="420" height="170" rx="28" fill="#F7FBFE" fill-opacity="0.96"/>
  <text x="88" y="536" fill="#6C8AA0" font-size="22" font-family="Segoe UI, Arial" font-weight="700">Presets</text>
  <rect x="88" y="564" width="110" height="42" rx="21" fill="#1594D8"/>
  <rect x="214" y="564" width="110" height="42" rx="21" fill="#E8F5FA"/>
  <rect x="340" y="564" width="110" height="42" rx="21" fill="#E8F5FA"/>
  <text x="112" y="592" fill="#FFFFFF" font-size="18" font-family="Segoe UI, Arial" font-weight="700">商务讲解</text>
  <text x="236" y="592" fill="#537A93" font-size="18" font-family="Segoe UI, Arial" font-weight="700">展会主持</text>
  <text x="368" y="592" fill="#537A93" font-size="18" font-family="Segoe UI, Arial" font-weight="700">数字导购</text>

  <defs>
    <linearGradient id="bg" x1="90" y1="60" x2="1172" y2="864" gradientUnits="userSpaceOnUse">
      <stop stop-color="#F8FCFF"/>
      <stop offset="1" stop-color="#EAF5FB"/>
    </linearGradient>
    <radialGradient id="avatarGlow" cx="0" cy="0" r="1" gradientUnits="userSpaceOnUse" gradientTransform="translate(718 294) rotate(90) scale(174 162)">
      <stop stop-color="#86E8F4" stop-opacity="0.88"/>
      <stop offset="1" stop-color="#86E8F4" stop-opacity="0.08"/>
    </radialGradient>
    <linearGradient id="avatarHead" x1="718" y1="224" x2="718" y2="348" gradientUnits="userSpaceOnUse">
      <stop stop-color="#F7FDFF"/>
      <stop offset="1" stop-color="#7CCEE7"/>
    </linearGradient>
    <linearGradient id="avatarBody" x1="718" y1="354" x2="718" y2="520" gradientUnits="userSpaceOnUse">
      <stop stop-color="#F2FBFF"/>
      <stop offset="1" stop-color="#4AA9D3" stop-opacity="0.5"/>
    </linearGradient>
  </defs>
</svg>
