<svg width="1280" height="900" viewBox="0 0 1280 900" fill="none" xmlns="http://www.w3.org/2000/svg">
  <rect width="1280" height="900" rx="44" fill="url(#bg)"/>
  <rect x="52" y="52" width="1176" height="88" rx="28" fill="#091B2D" fill-opacity="0.94"/>
  <text x="92" y="106" fill="#E4F7FD" font-size="30" font-family="Segoe UI, Arial" font-weight="700">Realtime Interaction</text>
  <rect x="52" y="176" width="692" height="660" rx="36" fill="#0A2236"/>
  <rect x="92" y="222" width="612" height="122" rx="30" fill="#102D46"/>
  <text x="132" y="274" fill="#DDF4FC" font-size="22" font-family="Segoe UI, Arial" font-weight="700">User Question</text>
  <text x="132" y="314" fill="#EEF9FD" font-size="30" font-family="Segoe UI, Arial" font-weight="700">请介绍一下这个数字人的应用场景</text>
  <rect x="92" y="374" width="560" height="166" rx="34" fill="#EAF8FD"/>
  <text x="132" y="430" fill="#54809A" font-size="22" font-family="Segoe UI, Arial" font-weight="700">Assistant Reply</text>
  <text x="132" y="474" fill="#173D58" font-size="32" font-family="Segoe UI, Arial" font-weight="700">适合展会讲解、数字导购、</text>
  <text x="132" y="516" fill="#173D58" font-size="32" font-family="Segoe UI, Arial" font-weight="700">企业培训与在线客服。</text>
  <g>
    <rect x="92" y="588" width="612" height="182" rx="30" fill="#102D46"/>
    <rect x="136" y="648" width="28" height="72" rx="14" fill="#6FE7F3"/>
    <rect x="184" y="620" width="28" height="128" rx="14" fill="#6FE7F3"/>
    <rect x="232" y="644" width="28" height="80" rx="14" fill="#6FE7F3"/>
    <rect x="280" y="606" width="28" height="154" rx="14" fill="#6FE7F3"/>
    <rect x="328" y="630" width="28" height="106" rx="14" fill="#6FE7F3"/>
    <rect x="376" y="614" width="28" height="138" rx="14" fill="#6FE7F3"/>
    <rect x="424" y="646" width="28" height="78" rx="14" fill="#6FE7F3"/>
    <text x="490" y="704" fill="#EAF8FD" font-size="26" font-family="Segoe UI, Arial" font-weight="700">Voice stream live</text>
  </g>
  <rect x="780" y="176" width="448" height="206" rx="32" fill="#F7FBFE" fill-opacity="0.96"/>
  <text x="824" y="234" fill="#6A8AA2" font-size="22" font-family="Segoe UI, Arial" font-weight="700">Summary</text>
  <text x="824" y="300" fill="#153D58" font-size="44" font-family="Segoe UI, Arial" font-weight="700">自动生成摘要</text>
  <rect x="824" y="322" width="320" height="12" rx="6" fill="#D7ECF5"/>
  <rect x="824" y="350" width="284" height="12" rx="6" fill="#E4F2F8"/>
  <rect x="780" y="414" width="448" height="192" rx="32" fill="#102D46"/>
  <text x="824" y="470" fill="#88ADC3" font-size="22" font-family="Segoe UI, Arial" font-weight="700">Recording</text>
  <text x="824" y="548" fill="#EEF9FD" font-size="72" font-family="Segoe UI, Arial" font-weight="700">06:42</text>
  <text x="1084" y="548" fill="#88ADC3" font-size="38" font-family="Segoe UI, Arial" font-weight="700">MP4</text>
  <rect x="780" y="638" width="214" height="198" rx="32" fill="#102D46"/>
  <rect x="1014" y="638" width="214" height="198" rx="32" fill="#102D46"/>
  <text x="824" y="700" fill="#88ADC3" font-size="22" font-family="Segoe UI, Arial" font-weight="700">Sessions</text>
  <text x="824" y="780" fill="#EEF9FD" font-size="68" font-family="Segoe UI, Arial" font-weight="700">03</text>
  <text x="1058" y="700" fill="#88ADC3" font-size="22" font-family="Segoe UI, Arial" font-weight="700">Completion</text>
  <text x="1058" y="780" fill="#EEF9FD" font-size="68" font-family="Segoe UI, Arial" font-weight="700">100%</text>
  <defs>
    <linearGradient id="bg" x1="78" y1="58" x2="1180" y2="850" gradientUnits="userSpaceOnUse">
      <stop stop-color="#F8FCFF"/>
      <stop offset="1" stop-color="#EDF6FB"/>
    </linearGradient>
  </defs>
</svg>
